<?xml version="1.0" encoding="utf-8"?>
<!-- Generator: Adobe Illustrator 17.1.0, SVG Export Plug-In . SVG Version: 6.00 Build 0)  -->
<!DOCTYPE svg PUBLIC "-//W3C//DTD SVG 1.1//EN" "http://www.w3.org/Graphics/SVG/1.1/DTD/svg11.dtd">
<svg version="1.1" id="Layer_1" xmlns="http://www.w3.org/2000/svg" xmlns:xlink="http://www.w3.org/1999/xlink" x="0px" y="0px"
	 viewBox="0 0 610.3 528.7" enable-background="new 0 0 610.3 528.7" xml:space="preserve">
<image display="none" overflow="visible" width="1080" height="1080" xlink:href="D:\Рабочий стол\1222.png"  transform="matrix(0.24 0 0 0.24 120.3997 130.8193)">
</image>
<image display="none" overflow="visible" width="1080" height="1080" xlink:href="D:\Рабочий стол\1333.png"  transform="matrix(0.24 0 0 0.24 120.3997 130.8193)">
</image>
<g display="none">
	<path display="inline" fill="#CCCCCC" d="M76.8,358.2l244.6-2.2c2.1,0,3-3.6,2.7-5.6l-31.4-177.9c-0.8-4.3-4.2-7.6-8.5-8.2
		L55.2,132.4c-6.9-0.9-11.1,4.2-10.5,8.9l23.9,208.6C69.1,355,73,358.3,76.8,358.2z"/>
	<path display="inline" d="M78.2,356.4l242.6-2.1c2.1,0,3.6-1.9,3.3-3.9l-31.2-178c-0.7-4.3-4.2-7.6-8.4-8.2L55.2,132.4
		c-4.7-0.7-8.8,3.3-8.2,8l23.8,209.5C71.3,353.6,74.4,356.4,78.2,356.4z"/>
	<polygon display="inline" fill="#FFFFFF" points="79.9,334.4 314.4,338.6 286.6,177.9 58.3,148.5 	"/>
	
		<image display="inline" overflow="visible" width="419" height="5" xlink:href="F96408B5.png"  transform="matrix(1 0 0 1 71 358.6974)">
	</image>
	
		<linearGradient id="SVGID_1_" gradientUnits="userSpaceOnUse" x1="2757.1282" y1="362.6725" x2="2757.1282" y2="356.2378" gradientTransform="matrix(-1 0 0 1 3040.3103 0)">
		<stop  offset="0" style="stop-color:#000000"/>
		<stop  offset="8.817506e-002" style="stop-color:#141414"/>
		<stop  offset="0.2794" style="stop-color:#3B3B3B"/>
		<stop  offset="0.4692" style="stop-color:#595959"/>
		<stop  offset="0.6547" style="stop-color:#6F6F6F"/>
		<stop  offset="0.834" style="stop-color:#7C7C7C"/>
		<stop  offset="1" style="stop-color:#808080"/>
	</linearGradient>
	<path display="inline" fill="url(#SVGID_1_)" d="M77.2,357.2c0,0,8.8,2.4,36.4,4.2c2.4,0.2,4.8,0.2,7.3,0.2l98.6,1h154.3l56.1-1
		c0,0,35.5,0.6,59.4-4.4l-190-1l-86.5,0.2L77.2,357.2z"/>
	
		<linearGradient id="SVGID_2_" gradientUnits="userSpaceOnUse" x1="2551.1152" y1="353.6757" x2="2963.1411" y2="353.6757" gradientTransform="matrix(-1 0 0 1 3040.3103 0)">
		<stop  offset="0" style="stop-color:#939393"/>
		<stop  offset="6.700270e-003" style="stop-color:#E6E6E6"/>
		<stop  offset="0.4704" style="stop-color:#B3B3B3"/>
		<stop  offset="0.5145" style="stop-color:#F2F2F2"/>
		<stop  offset="0.5554" style="stop-color:#B3B3B3"/>
		<stop  offset="0.9799" style="stop-color:#E6E6E6"/>
		<stop  offset="1" style="stop-color:#949494"/>
	</linearGradient>
	<polygon display="inline" fill="url(#SVGID_2_)" points="77.2,350.1 212.9,352.4 231.2,352.4 489.2,355.2 489.2,357.2 350.4,357.2 
		231.9,356.4 212.7,356.4 77.2,357.2 	"/>
	<path display="inline" fill="#333333" d="M79.6,355.2L79.6,355.2c0.5,0,0.9-0.4,0.9-0.9v-2c0-0.5-0.4-0.9-0.9-0.9l0,0
		c-0.5,0-0.9,0.4-0.9,0.9v2C78.7,354.8,79.1,355.2,79.6,355.2z"/>
	
		<linearGradient id="SVGID_3_" gradientUnits="userSpaceOnUse" x1="2647.6587" y1="355.512" x2="2681.9341" y2="355.512" gradientTransform="matrix(-1 0 0 1 3040.3103 0)">
		<stop  offset="0" style="stop-color:#3E3D42"/>
		<stop  offset="4.957220e-002" style="stop-color:#DADADC"/>
		<stop  offset="0.5009" style="stop-color:#CFCED3"/>
		<stop  offset="0.959" style="stop-color:#D8D8DA"/>
		<stop  offset="1" style="stop-color:#3F3E43"/>
	</linearGradient>
	<path display="inline" fill="url(#SVGID_3_)" d="M392.7,354.1v1.5c0,0.9-0.8,1.6-1.7,1.6l-30.9,0c-0.9,0-1.6-0.7-1.6-1.6v-1.9
		L392.7,354.1z"/>
</g>
<linearGradient id="SVGID_4_" gradientUnits="userSpaceOnUse" x1="250" y1="311.6987" x2="250" y2="245.6961">
	<stop  offset="0" style="stop-color:#FF4659"/>
	<stop  offset="1" style="stop-color:#FFBFD1"/>
</linearGradient>
<path display="none" fill="url(#SVGID_4_)" d="M379.1,272v13.4c0,14.5-11.8,26.3-26.3,26.3H147.2c-14.5,0-26.3-11.8-26.3-26.3V272
	c0-14.5,11.8-26.3,26.3-26.3h205.6C367.3,245.7,379.1,257.5,379.1,272z"/>
<g>
	<circle fill="#7F0606" cx="305.2" cy="264.3" r="36"/>
	<g id="Eye_2_">
		<g>
			<path fill="#FFFFFF" d="M305.2,280c-15.6,0-28.2-13.8-28.2-15.5l0-0.8l0.4,0c1.7-2.1,12.9-14.9,27.8-14.9
				c14.5,0,27.2,14.5,27.8,15.1l0.4,0.5l-0.4,0.5C332.5,265.4,321.7,279.9,305.2,280z M278.6,264.5c1.6,2.5,12.6,13.9,26.5,13.9
				c14,0,24.1-11.5,26.2-14.1c-2.3-2.5-13.8-14.1-26.2-14.1C291.2,250.3,280.4,262.5,278.6,264.5z"/>
		</g>
		<g>
			<path fill="#FFFFFF" d="M305.2,280c-8.6,0-15.6-7-15.6-15.6c0-8.6,7-15.6,15.6-15.6c8.6,0,15.6,7,15.6,15.6
				C320.8,272.9,313.8,280,305.2,280z M305.1,250.3c-7.8,0-14.1,6.3-14,14.1c0,7.8,6.3,14.1,14.1,14.1c7.8,0,14.1-6.3,14.1-14.1
				C319.2,256.6,312.9,250.3,305.1,250.3z"/>
		</g>
		<g>
			<path fill="#FFFFFF" d="M305.2,270.8c-3.5,0-6.4-2.9-6.4-6.4c0-3.5,2.9-6.4,6.4-6.4c3.5,0,6.4,2.9,6.4,6.4
				C311.6,267.9,308.7,270.8,305.2,270.8z M305.2,259.5c-2.7,0-4.9,2.2-4.9,4.9c0,2.7,2.2,4.9,4.9,4.9c2.7,0,4.9-2.2,4.9-4.9
				C310,261.7,307.8,259.5,305.2,259.5z"/>
		</g>
	</g>
</g>
</svg>
