<?xml version="1.0" encoding="utf-8"?>
<!-- Generator: Adobe Illustrator 17.1.0, SVG Export Plug-In . SVG Version: 6.00 Build 0)  -->
<!DOCTYPE svg PUBLIC "-//W3C//DTD SVG 1.1//EN" "http://www.w3.org/Graphics/SVG/1.1/DTD/svg11.dtd">
<svg version="1.1" id="Layer_1" xmlns="http://www.w3.org/2000/svg" xmlns:xlink="http://www.w3.org/1999/xlink" x="0px" y="0px"
	 viewBox="0 0 500 500" enable-background="new 0 0 500 500" xml:space="preserve">
<radialGradient id="SVGID_1_" cx="252.8249" cy="70366.3047" r="169.3349" gradientTransform="matrix(1 0 0 0.1059 0 -7100.0483)" gradientUnits="userSpaceOnUse">
	<stop  offset="0" style="stop-color:#ADADAD"/>
	<stop  offset="1" style="stop-color:#FFFFFF"/>
</radialGradient>
<ellipse fill="url(#SVGID_1_)" cx="252.8" cy="351.7" rx="167.2" ry="15.3"/>
<linearGradient id="SVGID_2_" gradientUnits="userSpaceOnUse" x1="252.8249" y1="286.971" x2="252.8249" y2="168.0175">
	<stop  offset="0" style="stop-color:#750A0D"/>
	<stop  offset="1" style="stop-color:#FF2A4E"/>
</linearGradient>
<path fill="url(#SVGID_2_)" d="M485.5,215.4v24.2c0,26.1-21.3,47.4-47.4,47.4H67.6c-26.1,0-47.4-21.3-47.4-47.4v-24.2
	c0-26.1,21.3-47.4,47.4-47.4h370.5C464.2,168,485.5,189.3,485.5,215.4z"/>
<linearGradient id="SVGID_3_" gradientUnits="userSpaceOnUse" x1="252.8249" y1="275.1554" x2="252.8249" y2="179.8333">
	<stop  offset="0" style="stop-color:#FF2A42"/>
	<stop  offset="0.2384" style="stop-color:#CF1F2F"/>
	<stop  offset="0.4681" style="stop-color:#A81621"/>
	<stop  offset="0.6784" style="stop-color:#8C0F16"/>
	<stop  offset="0.8624" style="stop-color:#7B0B0F"/>
	<stop  offset="1" style="stop-color:#750A0D"/>
</linearGradient>
<path fill="url(#SVGID_3_)" d="M67.6,275.2c-19.6,0-35.6-16-35.6-35.6v-24.2c0-19.6,16-35.6,35.6-35.6h370.5
	c19.6,0,35.6,16,35.6,35.6v24.2c0,19.6-16,35.6-35.6,35.6H67.6z"/>
</svg>
