<?xml version="1.0" encoding="utf-8"?>
<!-- Generator: Adobe Illustrator 17.1.0, SVG Export Plug-In . SVG Version: 6.00 Build 0)  -->
<!DOCTYPE svg PUBLIC "-//W3C//DTD SVG 1.1//EN" "http://www.w3.org/Graphics/SVG/1.1/DTD/svg11.dtd">
<svg version="1.1" id="Layer_1" xmlns="http://www.w3.org/2000/svg" xmlns:xlink="http://www.w3.org/1999/xlink" x="0px" y="0px"
	 viewBox="0 0 500 500" enable-background="new 0 0 500 500" xml:space="preserve">
<image display="none" overflow="visible" width="1080" height="1080" xlink:href="D:\Рабочий стол\1222.png"  transform="matrix(0.24 0 0 0.24 120.3997 102.1219)">
</image>
<image display="none" overflow="visible" width="1080" height="1080" xlink:href="D:\Рабочий стол\1333.png"  transform="matrix(0.24 0 0 0.24 120.3997 102.1219)">
</image>
<g display="none">
	<path display="inline" fill="#CCCCCC" d="M76.8,329.5l244.6-2.2c2.1,0,3-3.6,2.7-5.6l-31.4-177.9c-0.8-4.3-4.2-7.6-8.5-8.2
		L55.2,103.7c-6.9-0.9-11.1,4.2-10.5,8.9l23.9,208.6C69.1,326.3,73,329.6,76.8,329.5z"/>
	<path display="inline" d="M78.2,327.7l242.6-2.1c2.1,0,3.6-1.9,3.3-3.9l-31.2-178c-0.7-4.3-4.2-7.6-8.4-8.2L55.2,103.7
		c-4.7-0.7-8.8,3.3-8.2,8l23.8,209.5C71.3,324.9,74.4,327.7,78.2,327.7z"/>
	<polygon display="inline" fill="#FFFFFF" points="79.9,305.7 314.4,309.9 286.6,149.2 58.3,119.8 	"/>
	
		<image display="inline" overflow="visible" width="419" height="5" xlink:href="23AEDB86.png"  transform="matrix(1 0 0 1 71 330)">
	</image>
	
		<linearGradient id="SVGID_1_" gradientUnits="userSpaceOnUse" x1="2757.1282" y1="333.9751" x2="2757.1282" y2="327.5404" gradientTransform="matrix(-1 0 0 1 3040.3103 0)">
		<stop  offset="0" style="stop-color:#000000"/>
		<stop  offset="8.817506e-002" style="stop-color:#141414"/>
		<stop  offset="0.2794" style="stop-color:#3B3B3B"/>
		<stop  offset="0.4692" style="stop-color:#595959"/>
		<stop  offset="0.6547" style="stop-color:#6F6F6F"/>
		<stop  offset="0.834" style="stop-color:#7C7C7C"/>
		<stop  offset="1" style="stop-color:#808080"/>
	</linearGradient>
	<path display="inline" fill="url(#SVGID_1_)" d="M77.2,328.5c0,0,8.8,2.4,36.4,4.2c2.4,0.2,4.8,0.2,7.3,0.2l98.6,1h154.3l56.1-1
		c0,0,35.5,0.6,59.4-4.4l-190-1l-86.5,0.2L77.2,328.5z"/>
	
		<linearGradient id="SVGID_2_" gradientUnits="userSpaceOnUse" x1="2551.1152" y1="324.9783" x2="2963.1411" y2="324.9783" gradientTransform="matrix(-1 0 0 1 3040.3103 0)">
		<stop  offset="0" style="stop-color:#939393"/>
		<stop  offset="6.700270e-003" style="stop-color:#E6E6E6"/>
		<stop  offset="0.4704" style="stop-color:#B3B3B3"/>
		<stop  offset="0.5145" style="stop-color:#F2F2F2"/>
		<stop  offset="0.5554" style="stop-color:#B3B3B3"/>
		<stop  offset="0.9799" style="stop-color:#E6E6E6"/>
		<stop  offset="1" style="stop-color:#949494"/>
	</linearGradient>
	<polygon display="inline" fill="url(#SVGID_2_)" points="77.2,321.4 212.9,323.7 231.2,323.7 489.2,326.5 489.2,328.5 350.4,328.5 
		231.9,327.7 212.7,327.7 77.2,328.5 	"/>
	<path display="inline" fill="#333333" d="M79.6,326.5L79.6,326.5c0.5,0,0.9-0.4,0.9-0.9v-2c0-0.5-0.4-0.9-0.9-0.9l0,0
		c-0.5,0-0.9,0.4-0.9,0.9v2C78.7,326.1,79.1,326.5,79.6,326.5z"/>
	
		<linearGradient id="SVGID_3_" gradientUnits="userSpaceOnUse" x1="2647.6587" y1="326.8146" x2="2681.9341" y2="326.8146" gradientTransform="matrix(-1 0 0 1 3040.3103 0)">
		<stop  offset="0" style="stop-color:#3E3D42"/>
		<stop  offset="4.957220e-002" style="stop-color:#DADADC"/>
		<stop  offset="0.5009" style="stop-color:#CFCED3"/>
		<stop  offset="0.959" style="stop-color:#D8D8DA"/>
		<stop  offset="1" style="stop-color:#3F3E43"/>
	</linearGradient>
	<path display="inline" fill="url(#SVGID_3_)" d="M392.7,325.4v1.5c0,0.9-0.8,1.6-1.7,1.6l-30.9,0c-0.9,0-1.6-0.7-1.6-1.6v-1.9
		L392.7,325.4z"/>
</g>
<linearGradient id="SVGID_4_" gradientUnits="userSpaceOnUse" x1="250" y1="283.0013" x2="250" y2="216.9987">
	<stop  offset="0" style="stop-color:#FF4659"/>
	<stop  offset="1" style="stop-color:#FFBFD1"/>
</linearGradient>
<path fill="url(#SVGID_4_)" d="M379.1,243.3v13.4c0,14.5-11.8,26.3-26.3,26.3H147.2c-14.5,0-26.3-11.8-26.3-26.3v-13.4
	c0-14.5,11.8-26.3,26.3-26.3h205.6C367.3,217,379.1,228.8,379.1,243.3z"/>
<linearGradient id="SVGID_5_" gradientUnits="userSpaceOnUse" x1="250" y1="276.4453" x2="250" y2="223.5548">
	<stop  offset="0" style="stop-color:#FFAABA"/>
	<stop  offset="5.121183e-002" style="stop-color:#FFA7B6"/>
	<stop  offset="0.4253" style="stop-color:#FF919A"/>
	<stop  offset="0.7539" style="stop-color:#FF8489"/>
	<stop  offset="1" style="stop-color:#FF7F83"/>
</linearGradient>
<path fill="url(#SVGID_5_)" d="M147.2,276.4c-10.9,0-19.7-8.9-19.7-19.7v-13.4c0-10.9,8.9-19.7,19.7-19.7h205.6
	c10.9,0,19.7,8.9,19.7,19.7v13.4c0,10.9-8.9,19.7-19.7,19.7H147.2z"/>
</svg>
