<svg id="Слой_1" data-name="Слой 1" xmlns="http://www.w3.org/2000/svg" viewBox="0 0 407.43 407.43"><defs><style>.cls-1{fill:#ce3e3e;opacity:0.7;}.cls-2{fill:none;stroke:#fff;stroke-miterlimit:10;stroke-width:10px;}</style></defs><title>Лицо</title><circle class="cls-1" cx="203.72" cy="203.72" r="203.72"/><path class="cls-2" d="M94.37,221.49c-2-1.79-4.08-3.81-1.68-5.08,3.78-2,10.83-6.68,12.39-12,2.8-9.46,18.66-93.64,36.42-110.31,0,0,28-32.22,74.24-29.42,0,0,37.82-2.8,68.64,28,0,0,15.41,15.24,21,48.24,0,0,5.6,48.41-32.22,103,0,0-5.6,9.81-5.6,21l4.49,42.62a12,12,0,0,1-9.29,13l-97.69,22.1a8,8,0,0,1-9.76-7.64l-.83-41.42A11.88,11.88,0,0,0,142.3,282c-10.08.27-23.66.47-28.81-.16-8.37-1-1.4-44.83-1.4-44.83Z"/></svg>