<?xml version="1.0" encoding="utf-8"?>
<!-- Generator: Adobe Illustrator 21.0.0, SVG Export Plug-In . SVG Version: 6.00 Build 0)  -->
<svg version="1.1" id="Layer_1" xmlns="http://www.w3.org/2000/svg" xmlns:xlink="http://www.w3.org/1999/xlink" x="0px" y="0px"
	 viewBox="0 0 283.5 283.5" style="enable-background:new 0 0 283.5 283.5;" xml:space="preserve">
<style type="text/css">
	.st0{fill:#E52C2C;}
</style>
<g>
	<g>
		<path class="st0" d="M114.9,123.4l-30.4-13.1c9.3-7.6,15.2-19,15.2-31.9c0-22.8-18.4-41.2-41.2-41.2S17.3,55.6,17.3,78.4
			s18.4,41.2,41.2,41.2c12.7,0,24.1,5.1,31.5,12.7L114.9,123.4z M31.2,78.4c0-15,12.2-27.4,27.4-27.4c15,0,27.4,12.2,27.4,27.4
			s-12.2,27.4-27.4,27.4C43.5,105.8,31.2,93.4,31.2,78.4z"/>
		<path class="st0" d="M136.6,167.3l77.5,27.5c4.9,2.1,36.3-4,46.4-8.7L176.7,150L136.6,167.3z"/>
	</g>
	<path class="st0" d="M99.7,213.1c0-12.9-5.9-24.5-15.2-31.9l175.9-75.8c-9.9-4.9-41.4-10.8-46.4-8.7L99.7,137.3
		c0,18-18.2,34.6-41.2,34.6c-22.8,0-41.2,18.4-41.2,41.2s18.4,41.2,41.2,41.2C81.3,254.3,99.7,235.7,99.7,213.1z M118.2,145.7
		c0-4,3.2-7.4,7.4-7.4c4,0,7.4,3.2,7.4,7.4c0,4-3.2,7.4-7.4,7.4C121.4,153.1,118.2,149.8,118.2,145.7z M31.2,213.1
		c0-15,12.2-27.4,27.4-27.4s27.4,12.2,27.4,27.4c0,15-12.2,27.4-27.4,27.4S31.2,228.1,31.2,213.1z"/>
	<g>
		<rect x="72" y="141.1" class="st0" width="14.1" height="8.4"/>
		<rect x="48.1" y="141.1" class="st0" width="14.1" height="8.4"/>
		<rect x="23.9" y="141.1" class="st0" width="14.1" height="8.4"/>
		<rect y="141.1" class="st0" width="14.1" height="8.4"/>
		<rect x="269.2" y="141.1" class="st0" width="14.1" height="8.4"/>
		<rect x="245.3" y="141.1" class="st0" width="14.1" height="8.4"/>
		<rect x="221.2" y="141.1" class="st0" width="14.1" height="8.4"/>
		<rect x="197.2" y="141.1" class="st0" width="14.1" height="8.4"/>
	</g>
</g>
</svg>
