<svg id="Layer_1" data-name="Layer 1" xmlns="http://www.w3.org/2000/svg" viewBox="0 0 149.1 114.24"><defs><style>.cls-1{fill:#ce3e3e;}</style></defs><title>ножницы</title><path class="cls-1" d="M60.5,45.39l-16-6.9a21.69,21.69,0,1,0-13.68,4.9,23.36,23.36,0,0,1,16.62,6.7ZM16.44,21.69A14.38,14.38,0,1,1,30.82,36.07h0A14.38,14.38,0,0,1,16.44,21.69Z" transform="translate(0 -0.01)"/><path class="cls-1" d="M71.87,68.49,112.68,83c2.55,1.1,19.14-2.07,24.38-4.64L93,59.38Z" transform="translate(0 -0.01)"/><path class="cls-1" d="M52.51,92.55a21.65,21.65,0,0,0-8-16.84l92.58-39.85c-5.23-2.57-21.82-5.74-24.38-4.64L52.54,52.65c0,9.5-9.59,18.22-21.69,18.22A21.69,21.69,0,1,0,52.54,92.56ZM62.2,57.12A3.86,3.86,0,1,1,66.06,61a3.86,3.86,0,0,1-3.86-3.86h0ZM16.44,92.55a14.38,14.38,0,1,1,14.38,14.38h0A14.38,14.38,0,0,1,16.44,92.55Z" transform="translate(0 -0.01)"/><rect class="cls-1" x="37.93" y="54.69" width="7.35" height="4.4"/><rect class="cls-1" x="25.29" y="54.69" width="7.35" height="4.4"/><rect class="cls-1" x="12.64" y="54.69" width="7.35" height="4.4"/><rect class="cls-1" y="54.69" width="7.35" height="4.4"/><rect class="cls-1" x="141.75" y="54.69" width="7.35" height="4.4"/><rect class="cls-1" x="129.11" y="54.69" width="7.35" height="4.4"/><rect class="cls-1" x="116.46" y="54.69" width="7.35" height="4.4"/><rect class="cls-1" x="103.82" y="54.69" width="7.35" height="4.4"/></svg>