<svg id="Layer_1" data-name="Layer 1" xmlns="http://www.w3.org/2000/svg" viewBox="0 0 431.55 719.99"><defs><style>.cls-1{fill:#ce3e3e;}</style></defs><title>рука2</title><path class="cls-1" d="M420.09,70.06V70a42.65,42.65,0,0,0-65.82-25.54q-4.84-8.21-10.33-16.12h0a45.6,45.6,0,0,0-58.36-14.12A44.5,44.5,0,0,0,271.9,25.32c-2.71-3.19-5.47-6.35-8.31-9.46l0-.06-.24-.27c-.15-.16-.31-.3-.46-.45s-.31-.34-.48-.5l-.22-.19-.18-.16a54.41,54.41,0,0,0-79.59,73.68l.09.12.36.47c.1.12.21.22.3.34s.24.31.38.46a237.39,237.39,0,0,1,60.26,133.33q-2.73-2.5-5.56-4.91c-.17-.14-.35-.26-.52-.39h0l-.35-.26c-.17-.13-.34-.27-.52-.39A74.82,74.82,0,0,0,200.14,202h-.39c-23.22-2.86-50.73.69-77.51,10l-.32.13-.31.1A123.92,123.92,0,0,0,49,289.2,43,43,0,0,0,20,322.2a17.15,17.15,0,0,0-.45,2.13A81.27,81.27,0,0,1,11.92,349a17.1,17.1,0,0,0-1.24,2A92.16,92.16,0,0,0,14,442.67l.12.17,0,.09C43.45,487.7,73.7,534,105.59,578.67c20.2,28.29,37.09,51.63,53.17,73.47.07.1.16.18.23.28s.19.28.3.41c8.52,10.41,14.1,21.49,16.61,32.93h0c4.34,19.78,21.93,34.14,41.83,34.14H353.18a43.48,43.48,0,0,0,41.16-56.5h0c-14.18-44.64-20.78-93.12-20.77-152.64h0c-.36-72.28,11.2-147.14,30.92-200.25h0a403.11,403.11,0,0,0,26.27-118.93A396.89,396.89,0,0,0,420.09,70.06Zm-280,242.24A12.63,12.63,0,0,1,159.91,310h0a113.92,113.92,0,0,1,28.34,44.87h0a35.35,35.35,0,0,1-57,37.64h0A75.06,75.06,0,0,1,116,373.66h0a8.51,8.51,0,0,1-1-5.23h0a88.89,88.89,0,0,0-2.72-32.67A60.62,60.62,0,0,0,140.1,312.3ZM42.7,424.46A58,58,0,0,1,39.6,369a17.18,17.18,0,0,0,1.28-2.06,115.19,115.19,0,0,0,11.9-36,17.09,17.09,0,0,0,.43-2,9,9,0,0,1,6.54-7.45,9.23,9.23,0,0,1,9.46,3.27h0a57.59,57.59,0,0,1,4.74,6.91l.1.17a55.11,55.11,0,0,1,7.22,33.29h0a42.52,42.52,0,0,0,5.27,25.49h0a109,109,0,0,0,22.07,27.29h0a69.35,69.35,0,0,0,111.84-73.91h0a148.07,148.07,0,0,0-36.83-58.32h0a46.62,46.62,0,0,0-72.3,8.61,26.54,26.54,0,0,1-14.2,11c-.45-.59-.89-1.19-1.35-1.78h0a43.68,43.68,0,0,0-12-10.42,89.94,89.94,0,0,1,49.9-49.1c22-7.6,44-10.53,62.14-8.24h.34a40.89,40.89,0,0,1,20.61,8.42,152.8,152.8,0,0,1,43.11,60.39,17,17,0,0,0,31.7-12.29l-.05-.13a185.78,185.78,0,0,0-12.84-26.33A271.46,271.46,0,0,0,209.14,67a20.37,20.37,0,0,1,1.93-27.47,20.64,20.64,0,0,1,27.67-.44,314.22,314.22,0,0,1,27,34,16.93,16.93,0,0,0,1,1.5,309.6,309.6,0,0,1,53.08,181.2,17,17,0,0,0,16.61,17.38h.4a17,17,0,0,0,17-16.61,345.23,345.23,0,0,0-58.1-199.69,11.2,11.2,0,0,1,5.6-12.62A11.52,11.52,0,0,1,316,47.76a217.36,217.36,0,0,1,21.08,37.86c.1.24.2.47.31.71a216.88,216.88,0,0,1,14,46.62,17,17,0,0,0,33.51-5.73l-.06-.35a251.16,251.16,0,0,0-14.55-50,8.56,8.56,0,0,1,7.26-6A8.68,8.68,0,0,1,387,77.69a.33.33,0,0,0,.06.23c.06.08,0,.17,0,.25,17.8,72,12.69,150.22-14.38,220.18v.22c-21.06,56.73-33.41,136-33,212.17h0v.08h0c0,63.05,7.1,114.78,22.37,162.77h0a9.28,9.28,0,0,1-1.31,8.15,9.68,9.68,0,0,1-7.45,4H217.65a9.15,9.15,0,0,1-8.62-7.43h0c-3.63-16.55-11.42-32.27-23.15-46.73-15.92-21.64-32.68-44.79-52.71-72.84C101.76,514.76,71.76,468.88,42.7,424.46Z" transform="translate(-0.09 0.09)"/></svg>