<svg id="Layer_1" data-name="Layer 1" xmlns="http://www.w3.org/2000/svg" viewBox="0 0 490.25 352.34"><defs><style>.cls-1{opacity:0.98;}.cls-2{fill:#7c7777;}.cls-3{fill:#ea1f1f;}</style></defs><title>рупор</title><g class="cls-1"><path class="cls-2" d="M571.36,563.78a7.5,7.5,0,0,1-7.5-7.5c0-23.86-16.67-46.62-46.94-64.07C485.36,474,443.23,464,398.3,464a7.5,7.5,0,0,1-7.5-7.5V361.39a7.5,7.5,0,0,1,7.5-7.5c44.93,0,87.06-10,118.63-28.23,30.27-17.45,46.94-40.21,46.94-64.07a7.5,7.5,0,1,1,15,0V556.28A7.5,7.5,0,0,1,571.36,563.78ZM405.8,449.07c44.72,1.07,86.6,11.68,118.62,30.14,17,9.78,30.25,21.23,39.44,33.77V304.89c-9.2,12.54-22.48,24-39.44,33.77-32,18.47-73.9,29.08-118.62,30.14Z" transform="translate(-271.6 -229.89)"/><path class="cls-2" d="M398.3,464h-88A33,33,0,0,1,277.35,431V386.84a33,33,0,0,1,32.95-32.95h88a7.5,7.5,0,0,1,7.5,7.5v95.06A7.5,7.5,0,0,1,398.3,464Zm-88-95.06a18,18,0,0,0-17.95,17.95V431A18,18,0,0,0,310.29,449h80.5V368.89Z" transform="translate(-271.6 -229.89)"/><path class="cls-2" d="M601.09,582.23H588.68a24.85,24.85,0,0,1-24.82-24.82v-297a24.85,24.85,0,0,1,24.82-24.82h12.41a24.85,24.85,0,0,1,24.82,24.82v297A24.85,24.85,0,0,1,601.09,582.23Zm-12.41-331.6a9.83,9.83,0,0,0-9.82,9.82v297a9.83,9.83,0,0,0,9.82,9.82h12.41a9.83,9.83,0,0,0,9.82-9.82v-297a9.83,9.83,0,0,0-9.82-9.82Z" transform="translate(-271.6 -229.89)"/><path class="cls-2" d="M353,582.22H339.3a26.71,26.71,0,0,1-26.68-26.68V456.45a7.5,7.5,0,0,1,7.5-7.5h52.1a7.5,7.5,0,0,1,7.5,7.5v99.09A26.71,26.71,0,0,1,353,582.22ZM327.62,464v91.59a11.69,11.69,0,0,0,11.68,11.68H353a11.69,11.69,0,0,0,11.68-11.68V464Z" transform="translate(-271.6 -229.89)"/><path class="cls-2" d="M329.16,434.33a7.5,7.5,0,0,1-7.5-7.5V391a7.5,7.5,0,1,1,15,0v35.82A7.5,7.5,0,0,1,329.16,434.33Z" transform="translate(-271.6 -229.89)"/><path class="cls-2" d="M346.17,434.33a7.5,7.5,0,0,1-7.5-7.5V391a7.5,7.5,0,0,1,15,0v35.82A7.5,7.5,0,0,1,346.17,434.33Z" transform="translate(-271.6 -229.89)"/><path class="cls-2" d="M363.17,434.33a7.5,7.5,0,0,1-7.5-7.5V391a7.5,7.5,0,1,1,15,0v35.82A7.5,7.5,0,0,1,363.17,434.33Z" transform="translate(-271.6 -229.89)"/><path class="cls-2" d="M754.35,416.42H642.92a7.5,7.5,0,0,1,0-15H754.35a7.5,7.5,0,0,1,0,15Z" transform="translate(-271.6 -229.89)"/><path class="cls-2" d="M642.92,378.16a7.5,7.5,0,0,1-5.3-12.8l57.93-57.93A7.5,7.5,0,0,1,706.16,318L648.23,376A7.48,7.48,0,0,1,642.92,378.16Z" transform="translate(-271.6 -229.89)"/><path class="cls-2" d="M700.85,512.61a7.48,7.48,0,0,1-5.3-2.2l-57.93-57.93a7.5,7.5,0,1,1,10.61-10.61l57.93,57.93a7.5,7.5,0,0,1-5.3,12.8Z" transform="translate(-271.6 -229.89)"/></g><path d="M565.62,558a7.5,7.5,0,0,1-7.5-7.5c0-23.86-16.67-46.62-46.94-64.08-31.57-18.2-73.7-28.23-118.63-28.23a7.5,7.5,0,0,1-7.5-7.5V355.65a7.5,7.5,0,0,1,7.5-7.5c44.93,0,87.06-10,118.63-28.23,30.27-17.46,46.94-40.21,46.94-64.07a7.5,7.5,0,1,1,15,0V550.54A7.5,7.5,0,0,1,565.62,558ZM400.05,443.33c44.72,1.07,86.6,11.68,118.62,30.14,17,9.78,30.25,21.23,39.44,33.77V299.14c-9.2,12.54-22.48,24-39.44,33.77-32,18.47-73.9,29.08-118.62,30.14Z" transform="translate(-271.6 -229.89)"/><path d="M392.55,458.21h-88a33,33,0,0,1-32.95-32.95V381.1a33,33,0,0,1,32.95-32.95h88a7.5,7.5,0,0,1,7.5,7.5v95.06A7.5,7.5,0,0,1,392.55,458.21Zm-88-95.06A18,18,0,0,0,286.6,381.1v44.17a18,18,0,0,0,17.95,17.95h80.5V363.15Z" transform="translate(-271.6 -229.89)"/><path d="M595.35,576.49H582.94a24.85,24.85,0,0,1-24.82-24.82v-297a24.85,24.85,0,0,1,24.82-24.82h12.41a24.85,24.85,0,0,1,24.82,24.82v297A24.85,24.85,0,0,1,595.35,576.49Zm-12.41-331.6a9.83,9.83,0,0,0-9.82,9.82v297a9.83,9.83,0,0,0,9.82,9.82h12.41a9.83,9.83,0,0,0,9.82-9.82v-297a9.83,9.83,0,0,0-9.82-9.82Z" transform="translate(-271.6 -229.89)"/><path d="M347.29,576.48H333.55a26.71,26.71,0,0,1-26.68-26.68V450.71a7.5,7.5,0,0,1,7.5-7.5h52.1a7.5,7.5,0,0,1,7.5,7.5V549.8A26.71,26.71,0,0,1,347.29,576.48ZM321.88,458.21V549.8a11.69,11.69,0,0,0,11.68,11.68h13.74A11.69,11.69,0,0,0,359,549.8V458.21Z" transform="translate(-271.6 -229.89)"/><path d="M323.42,428.59a7.5,7.5,0,0,1-7.5-7.5V385.27a7.5,7.5,0,1,1,15,0v35.82A7.5,7.5,0,0,1,323.42,428.59Z" transform="translate(-271.6 -229.89)"/><path d="M340.42,428.59a7.5,7.5,0,0,1-7.5-7.5V385.27a7.5,7.5,0,1,1,15,0v35.82A7.5,7.5,0,0,1,340.42,428.59Z" transform="translate(-271.6 -229.89)"/><path d="M357.43,428.59a7.5,7.5,0,0,1-7.5-7.5V385.27a7.5,7.5,0,1,1,15,0v35.82A7.5,7.5,0,0,1,357.43,428.59Z" transform="translate(-271.6 -229.89)"/><path d="M748.61,410.68H637.18a7.5,7.5,0,0,1,0-15H748.61a7.5,7.5,0,0,1,0,15Z" transform="translate(-271.6 -229.89)"/><path d="M637.18,372.42a7.5,7.5,0,0,1-5.3-12.8l57.93-57.93a7.5,7.5,0,0,1,10.61,10.61l-57.93,57.93A7.48,7.48,0,0,1,637.18,372.42Z" transform="translate(-271.6 -229.89)"/><path d="M695.11,506.87a7.48,7.48,0,0,1-5.3-2.2l-57.93-57.93a7.5,7.5,0,1,1,10.61-10.61l57.93,57.93a7.5,7.5,0,0,1-5.3,12.8Z" transform="translate(-271.6 -229.89)"/><path class="cls-3" d="M565.62,558a7.5,7.5,0,0,1-7.5-7.5c0-23.86-16.67-46.62-46.94-64.08-31.57-18.2-73.7-28.23-118.63-28.23a7.5,7.5,0,0,1-7.5-7.5V355.65a7.5,7.5,0,0,1,7.5-7.5c44.93,0,87.06-10,118.63-28.23,30.27-17.46,46.94-40.21,46.94-64.07a7.5,7.5,0,1,1,15,0V550.54A7.5,7.5,0,0,1,565.62,558ZM400.05,443.33c44.72,1.07,86.6,11.68,118.62,30.14,17,9.78,30.25,21.23,39.44,33.77V299.14c-9.2,12.54-22.48,24-39.44,33.77-32,18.47-73.9,29.08-118.62,30.14Z" transform="translate(-271.6 -229.89)"/><path class="cls-3" d="M392.55,458.21h-88a33,33,0,0,1-32.95-32.95V381.1a33,33,0,0,1,32.95-32.95h88a7.5,7.5,0,0,1,7.5,7.5v95.06A7.5,7.5,0,0,1,392.55,458.21Zm-88-95.06A18,18,0,0,0,286.6,381.1v44.17a18,18,0,0,0,17.95,17.95h80.5V363.15Z" transform="translate(-271.6 -229.89)"/><path class="cls-3" d="M595.35,576.49H582.94a24.85,24.85,0,0,1-24.82-24.82v-297a24.85,24.85,0,0,1,24.82-24.82h12.41a24.85,24.85,0,0,1,24.82,24.82v297A24.85,24.85,0,0,1,595.35,576.49Zm-12.41-331.6a9.83,9.83,0,0,0-9.82,9.82v297a9.83,9.83,0,0,0,9.82,9.82h12.41a9.83,9.83,0,0,0,9.82-9.82v-297a9.83,9.83,0,0,0-9.82-9.82Z" transform="translate(-271.6 -229.89)"/><path class="cls-3" d="M347.29,576.48H333.55a26.71,26.71,0,0,1-26.68-26.68V450.71a7.5,7.5,0,0,1,7.5-7.5h52.1a7.5,7.5,0,0,1,7.5,7.5V549.8A26.71,26.71,0,0,1,347.29,576.48ZM321.88,458.21V549.8a11.69,11.69,0,0,0,11.68,11.68h13.74A11.69,11.69,0,0,0,359,549.8V458.21Z" transform="translate(-271.6 -229.89)"/><path class="cls-3" d="M323.42,428.59a7.5,7.5,0,0,1-7.5-7.5V385.27a7.5,7.5,0,1,1,15,0v35.82A7.5,7.5,0,0,1,323.42,428.59Z" transform="translate(-271.6 -229.89)"/><path class="cls-3" d="M340.42,428.59a7.5,7.5,0,0,1-7.5-7.5V385.27a7.5,7.5,0,1,1,15,0v35.82A7.5,7.5,0,0,1,340.42,428.59Z" transform="translate(-271.6 -229.89)"/><path class="cls-3" d="M357.43,428.59a7.5,7.5,0,0,1-7.5-7.5V385.27a7.5,7.5,0,1,1,15,0v35.82A7.5,7.5,0,0,1,357.43,428.59Z" transform="translate(-271.6 -229.89)"/><path class="cls-3" d="M748.61,410.68H637.18a7.5,7.5,0,0,1,0-15H748.61a7.5,7.5,0,0,1,0,15Z" transform="translate(-271.6 -229.89)"/><path class="cls-3" d="M637.18,372.42a7.5,7.5,0,0,1-5.3-12.8l57.93-57.93a7.5,7.5,0,0,1,10.61,10.61l-57.93,57.93A7.48,7.48,0,0,1,637.18,372.42Z" transform="translate(-271.6 -229.89)"/><path class="cls-3" d="M695.11,506.87a7.48,7.48,0,0,1-5.3-2.2l-57.93-57.93a7.5,7.5,0,1,1,10.61-10.61l57.93,57.93a7.5,7.5,0,0,1-5.3,12.8Z" transform="translate(-271.6 -229.89)"/></svg>