<svg id="Layer_1" data-name="Layer 1" xmlns="http://www.w3.org/2000/svg" viewBox="0 0 431.61 719.84"><defs><style>.cls-1{fill:#ef2222;}</style></defs><title>рука</title><path class="cls-1" d="M775.33,617.3l0-.09a42.65,42.65,0,0,0-65.82-25.54q-4.84-8.21-10.33-16.12l0,0,0,0a45.6,45.6,0,0,0-58.36-14.12,44.5,44.5,0,0,0-13.68,11.13c-2.71-3.19-5.47-6.35-8.31-9.46l-.05-.06-.24-.27c-.15-.16-.31-.3-.46-.45s-.31-.34-.48-.5l-.22-.19-.18-.16a54.41,54.41,0,0,0-79.59,73.68l.09.12.36.47c.1.12.21.22.3.34s.24.31.38.46A237.39,237.39,0,0,1,599,769.87c-1.82-1.67-3.67-3.31-5.56-4.91-.17-.14-.35-.26-.52-.39l0,0-.35-.26c-.17-.13-.34-.27-.52-.39a74.82,74.82,0,0,0-36.67-14.71h0l-.15,0-.18,0h-.06c-23.22-2.86-50.73.69-77.51,10l-.32.13-.31.1a123.92,123.92,0,0,0-72.57,77,43,43,0,0,0-29.08,33,17.15,17.15,0,0,0-.45,2.13,81.27,81.27,0,0,1-7.59,24.72,17.1,17.1,0,0,0-1.24,2,92.16,92.16,0,0,0,3.35,91.62l.12.17.05.09c29.25,44.77,59.5,91.07,91.39,135.74,20.2,28.29,37.09,51.63,53.17,73.47.07.1.16.18.23.28s.19.28.3.41c8.52,10.41,14.1,21.49,16.61,32.93v0c4.34,19.78,21.93,34.14,41.83,34.14H708.42a43.48,43.48,0,0,0,41.16-56.5h0C735.4,1166,728.8,1117.52,728.81,1058c0,0,0,0,0,0s0,0,0,0c-.36-72.28,11.2-147.14,30.92-200.25h0A403.11,403.11,0,0,0,786,738.82,396.89,396.89,0,0,0,775.33,617.3Zm-280,242.24a12.63,12.63,0,0,1,19.82-2.34h0a113.92,113.92,0,0,1,28.34,44.87h0a35.35,35.35,0,0,1-57,37.64h0a75.06,75.06,0,0,1-15.21-18.81h0a8.51,8.51,0,0,1-1-5.23h0A88.89,88.89,0,0,0,467.56,883,60.62,60.62,0,0,0,495.34,859.54ZM397.94,971.7a58,58,0,0,1-3.1-55.51,17.18,17.18,0,0,0,1.28-2.06,115.19,115.19,0,0,0,11.9-36,17.09,17.09,0,0,0,.43-2,9,9,0,0,1,6.54-7.45,9.23,9.23,0,0,1,9.46,3.27h0a57.59,57.59,0,0,1,4.74,6.91l.1.17a55.11,55.11,0,0,1,7.22,33.29h0a42.52,42.52,0,0,0,5.27,25.49l0,0a109,109,0,0,0,22.07,27.29h0a69.35,69.35,0,0,0,111.84-73.91h0a148.07,148.07,0,0,0-36.83-58.32h0a46.62,46.62,0,0,0-72.3,8.61,26.54,26.54,0,0,1-14.2,11c-.45-.59-.89-1.19-1.35-1.78h0a43.68,43.68,0,0,0-12-10.42,89.94,89.94,0,0,1,49.9-49.1c22-7.6,44-10.53,62.14-8.24h.17l.17,0A40.89,40.89,0,0,1,572,791.36a152.8,152.8,0,0,1,43.11,60.39,17,17,0,1,0,31.65-12.42A185.78,185.78,0,0,0,633.92,813a271.46,271.46,0,0,0-69.54-198.79,20.37,20.37,0,0,1,1.93-27.47,20.64,20.64,0,0,1,27.67-.44,314.22,314.22,0,0,1,27,34,16.94,16.94,0,0,0,1,1.5A309.6,309.6,0,0,1,675.06,803a17,17,0,0,0,16.61,17.38h.4a17,17,0,0,0,17-16.61,345.23,345.23,0,0,0-58.1-199.69,11.2,11.2,0,0,1,5.6-12.62A11.52,11.52,0,0,1,671.28,595a217.36,217.36,0,0,1,21.08,37.86c.1.24.2.47.31.71a216.88,216.88,0,0,1,14,46.62,17,17,0,1,0,33.45-6.08,251.16,251.16,0,0,0-14.55-50,8.56,8.56,0,0,1,7.26-6,8.68,8.68,0,0,1,9.38,6.82c0,.08,0,.15.06.23s0,.17,0,.25c17.8,72,12.69,150.22-14.38,220.18l0,.11,0,.11c-21.06,56.73-33.41,136-33,212.17h0v.08h0c0,63.05,7.1,114.78,22.37,162.77h0a9.28,9.28,0,0,1-1.31,8.15,9.68,9.68,0,0,1-7.45,4H572.89a9.15,9.15,0,0,1-8.62-7.43h0c-3.63-16.55-11.42-32.27-23.15-46.73-15.92-21.64-32.68-44.79-52.71-72.84C457,1062,427,1016.12,397.94,971.7Z" transform="translate(-355.24 -547.24)"/></svg>