<svg id="Layer_1" data-name="Layer 1" xmlns="http://www.w3.org/2000/svg" viewBox="0 0 484.51 346.64"><defs><style>.cls-1{fill:#ce3e3e;}</style></defs><title>рупор</title><path class="cls-1" d="M294,328.11a7.5,7.5,0,0,1-7.5-7.5c0-23.86-16.67-46.62-46.94-64.08-31.57-18.2-73.7-28.23-118.63-28.23a7.5,7.5,0,0,1-7.5-7.5v-95a7.5,7.5,0,0,1,7.5-7.5c44.93,0,87.06-10,118.63-28.23C269.85,72.57,286.52,49.82,286.52,26a7.5,7.5,0,0,1,15,0V320.65A7.5,7.5,0,0,1,294,328.11ZM128.45,213.44c44.72,1.07,86.6,11.68,118.62,30.14,17,9.78,30.25,21.23,39.44,33.77V69.25c-9.2,12.54-22.48,24-39.44,33.77-32,18.47-73.9,29.08-118.62,30.14Z" transform="translate(0 0.04)"/><path class="cls-1" d="M120.95,228.32h-88a33,33,0,0,1-33-33V151.21a33,33,0,0,1,33-33h88a7.5,7.5,0,0,1,7.5,7.5v95.06A7.5,7.5,0,0,1,120.95,228.32Zm-88-95.06a18,18,0,0,0-17.95,18v44.17a18,18,0,0,0,18,18h80.5V133.26Z" transform="translate(0 0.04)"/><path class="cls-1" d="M323.75,346.6H311.34a24.85,24.85,0,0,1-24.82-24.82v-297A24.85,24.85,0,0,1,311.34,0h12.41a24.85,24.85,0,0,1,24.82,24.82v297A24.85,24.85,0,0,1,323.75,346.6ZM311.34,15a9.83,9.83,0,0,0-9.82,9.82v297a9.83,9.83,0,0,0,9.82,9.82h12.41a9.83,9.83,0,0,0,9.82-9.82v-297A9.83,9.83,0,0,0,323.75,15Z" transform="translate(0 0.04)"/><path class="cls-1" d="M75.69,346.59H61.95a26.71,26.71,0,0,1-26.68-26.68V220.82a7.5,7.5,0,0,1,7.5-7.5h52.1a7.5,7.5,0,0,1,7.5,7.5h0v99.09A26.71,26.71,0,0,1,75.69,346.59ZM50.28,228.32v91.59A11.69,11.69,0,0,0,62,331.59H75.7a11.69,11.69,0,0,0,11.7-11.68h0V228.32Z" transform="translate(0 0.04)"/><path class="cls-1" d="M51.82,198.7a7.5,7.5,0,0,1-7.5-7.5h0V155.38a7.5,7.5,0,0,1,15,0V191.2a7.5,7.5,0,0,1-7.5,7.5Z" transform="translate(0 0.04)"/><path class="cls-1" d="M68.82,198.7a7.5,7.5,0,0,1-7.5-7.5h0V155.38a7.5,7.5,0,0,1,15,0V191.2a7.5,7.5,0,0,1-7.5,7.5Z" transform="translate(0 0.04)"/><path class="cls-1" d="M85.83,198.7a7.5,7.5,0,0,1-7.5-7.5h0V155.38a7.5,7.5,0,0,1,15,0V191.2a7.5,7.5,0,0,1-7.5,7.5Z" transform="translate(0 0.04)"/><path class="cls-1" d="M477,180.79H365.58a7.5,7.5,0,0,1,0-15H477a7.5,7.5,0,0,1,0,15Z" transform="translate(0 0.04)"/><path class="cls-1" d="M365.58,142.53a7.5,7.5,0,0,1-5.3-12.8L418.21,71.8a7.5,7.5,0,1,1,10.61,10.61l-57.93,57.93A7.48,7.48,0,0,1,365.58,142.53Z" transform="translate(0 0.04)"/><path class="cls-1" d="M423.51,277a7.48,7.48,0,0,1-5.3-2.2l-57.93-57.93a7.5,7.5,0,1,1,10.61-10.61h0l57.93,57.93a7.5,7.5,0,0,1-5.3,12.8Z" transform="translate(0 0.04)"/><path class="cls-1" d="M294,328.11a7.5,7.5,0,0,1-7.5-7.5c0-23.86-16.67-46.62-46.94-64.08-31.57-18.2-73.7-28.23-118.63-28.23a7.5,7.5,0,0,1-7.5-7.5v-95a7.5,7.5,0,0,1,7.5-7.5c44.93,0,87.06-10,118.63-28.23C269.85,72.57,286.52,49.82,286.52,26a7.5,7.5,0,0,1,15,0V320.65A7.5,7.5,0,0,1,294,328.11ZM128.45,213.44c44.72,1.07,86.6,11.68,118.62,30.14,17,9.78,30.25,21.23,39.44,33.77V69.25c-9.2,12.54-22.48,24-39.44,33.77-32,18.47-73.9,29.08-118.62,30.14Z" transform="translate(0 0.04)"/><path class="cls-1" d="M120.95,228.32h-88a33,33,0,0,1-33-33V151.21a33,33,0,0,1,33-33h88a7.5,7.5,0,0,1,7.5,7.5v95.06A7.5,7.5,0,0,1,120.95,228.32Zm-88-95.06a18,18,0,0,0-17.95,18v44.17a18,18,0,0,0,18,18h80.5V133.26Z" transform="translate(0 0.04)"/><path class="cls-1" d="M323.75,346.6H311.34a24.85,24.85,0,0,1-24.82-24.82v-297A24.85,24.85,0,0,1,311.34,0h12.41a24.85,24.85,0,0,1,24.82,24.82v297A24.85,24.85,0,0,1,323.75,346.6ZM311.34,15a9.83,9.83,0,0,0-9.82,9.82v297a9.83,9.83,0,0,0,9.82,9.82h12.41a9.83,9.83,0,0,0,9.82-9.82v-297A9.83,9.83,0,0,0,323.75,15Z" transform="translate(0 0.04)"/><path class="cls-1" d="M75.69,346.59H61.95a26.71,26.71,0,0,1-26.68-26.68V220.82a7.5,7.5,0,0,1,7.5-7.5h52.1a7.5,7.5,0,0,1,7.5,7.5h0v99.09A26.71,26.71,0,0,1,75.69,346.59ZM50.28,228.32v91.59A11.69,11.69,0,0,0,62,331.59H75.7a11.69,11.69,0,0,0,11.7-11.68h0V228.32Z" transform="translate(0 0.04)"/><path class="cls-1" d="M51.82,198.7a7.5,7.5,0,0,1-7.5-7.5h0V155.38a7.5,7.5,0,0,1,15,0V191.2a7.5,7.5,0,0,1-7.5,7.5Z" transform="translate(0 0.04)"/><path class="cls-1" d="M68.82,198.7a7.5,7.5,0,0,1-7.5-7.5h0V155.38a7.5,7.5,0,0,1,15,0V191.2a7.5,7.5,0,0,1-7.5,7.5Z" transform="translate(0 0.04)"/><path class="cls-1" d="M85.83,198.7a7.5,7.5,0,0,1-7.5-7.5h0V155.38a7.5,7.5,0,0,1,15,0V191.2a7.5,7.5,0,0,1-7.5,7.5Z" transform="translate(0 0.04)"/><path class="cls-1" d="M477,180.79H365.58a7.5,7.5,0,0,1,0-15H477a7.5,7.5,0,0,1,0,15Z" transform="translate(0 0.04)"/><path class="cls-1" d="M365.58,142.53a7.5,7.5,0,0,1-5.3-12.8L418.21,71.8a7.5,7.5,0,1,1,10.61,10.61l-57.93,57.93A7.48,7.48,0,0,1,365.58,142.53Z" transform="translate(0 0.04)"/><path class="cls-1" d="M423.51,277a7.48,7.48,0,0,1-5.3-2.2l-57.93-57.93a7.5,7.5,0,1,1,10.61-10.61h0l57.93,57.93a7.5,7.5,0,0,1-5.3,12.8Z" transform="translate(0 0.04)"/></svg>