<svg id="Warstwa_1" data-name="Warstwa 1" xmlns="http://www.w3.org/2000/svg" viewBox="0 0 77.43 61.91"><defs><style>.cls-1{fill:#ce3e3e;}.cls-2{fill:#e52c2c;}</style></defs><title>рука</title><path class="cls-1" d="M76.51,29.45l-15.44-.62a24,24,0,0,1-4.35-2.74,24.73,24.73,0,0,1-3.52-4.31,78.37,78.37,0,0,0-5.9-7.46C44.3,11,32.11-1.11,27.79.09l-1.2.33c-14,3.84-14,4.11-14.28,5A6.67,6.67,0,0,0,13.84,11a7.68,7.68,0,0,0,5.45,2.86l.12,1.23a.49.49,0,0,0,.53.44l1-.09a.49.49,0,0,1,.53.44v.46a.44.44,0,0,0,.45.43h.22l1.67-.19a17.1,17.1,0,0,1,1.83,0,.42.42,0,0,0,.44-.47L26,15.47a.48.48,0,0,1,.42-.53h0l1-.09a.48.48,0,0,0,.43-.52h0l-.11-1.09.41-.06,3.41,5.51c-.37-.1-.74-.19-1.1-.26l-.77-.16-.45-.08a21.77,21.77,0,0,0-3.82-.26h-.13a20.16,20.16,0,0,0-3.73.41h-.43l-.56.13h-.07l-.36.09a18.86,18.86,0,0,0-7.65,4.1,5.16,5.16,0,0,0-1.71-.32h-.08l-1.89.11A5.18,5.18,0,0,0,6,32H5.1A5.25,5.25,0,0,0,0,37.38v.11a5.4,5.4,0,0,0,3.21,5,5.37,5.37,0,0,0-2.83,4.8v.08a5.33,5.33,0,0,0,5.34,5.32h0l2-.09a4.69,4.69,0,0,0,2.94,8.31h2.87a4.66,4.66,0,0,0,2.85-1.17,21.86,21.86,0,0,0,14.81,1.52h.08c.35-.09.69-.19,1-.29l3.85-.07c1.48,0,2.91-.08,4-.14a36.19,36.19,0,0,0,14.2-3.39l.79-.36A8.21,8.21,0,0,1,58.4,55.9l7.52.36,8,.36a1.14,1.14,0,1,0,.29-2.26H74c-.12,0-12.54-.55-15.49-.71A9.64,9.64,0,0,0,54.18,55a33.85,33.85,0,0,1-11.86,3.3c-.72.08-1.47.14-2.26.18l-2.54.1a22.37,22.37,0,0,0,7.22-7.4l.21-.36h0c.18-.32.35-.64.51-1s.33-.68.49-1,.35-.82.5-1.23c.05-.13.1-.26.13-.37h0l.09-.25.08-.27V46.6a20.81,20.81,0,0,0,1-6.68v-.35A19.8,19.8,0,0,0,47.39,36,20.73,20.73,0,0,0,46,31.47a20.44,20.44,0,0,0-1.56-3.21,19.4,19.4,0,0,0-1.22-1.74,20.64,20.64,0,0,0-3.59-3.69A19.92,19.92,0,0,0,37.08,21l-.42-.24q-.83-.47-1.68-.86l-5.24-8.66a1.14,1.14,0,0,0-1.23-.52s-.29.06-1,.16c-1.11.16-3.28.42-7,.67h-.09a6.86,6.86,0,0,1-1.3,0,5.37,5.37,0,0,1-3.52-2,5,5,0,0,1-1.18-3.17c1.87-.8,10-3,12.75-3.79l1.23-.3c1.83-.5,10.86,6.61,17.19,13.59a77,77,0,0,1,5.74,7.26,25.61,25.61,0,0,0,3.93,4.74,25.92,25.92,0,0,0,5,3.14,1.15,1.15,0,0,0,.42.1l14.44.58,1.23,0a1.14,1.14,0,0,0,.09-2.27ZM5.89,27.71a2.93,2.93,0,0,1,3-2.88H9l1.7-.1h.19a2.92,2.92,0,0,1-.12,5.83h-.15l-1.89.11a2.91,2.91,0,0,1-2.84-3v0ZM2.28,37.58v-.09A3,3,0,0,1,5,34.36h5.49a2.72,2.72,0,0,1,2,.87,3.23,3.23,0,0,1,.88,2.21v.09a3,3,0,0,1-2.77,3.17H5.15a2.67,2.67,0,0,1-1.24-.3,3.15,3.15,0,0,1-1.64-2.81ZM6.59,50.46H5.71a3.05,3.05,0,0,1-3-3.07V47a3,3,0,0,1,2.78-2.73h.18l4.66-.2H11a3,3,0,0,1,3,3s0,0,0,.05v.1a3.2,3.2,0,0,1-.23,1.21A3,3,0,0,1,12.23,50a2.87,2.87,0,0,1-1.1.28h-.85Zm7.57,8.08a2.39,2.39,0,0,1-.71.16H10.7a2.42,2.42,0,0,1-2.42-2.42v0a2.42,2.42,0,0,1,1-1.91,2.37,2.37,0,0,1,1.31-.47h2.87a2.42,2.42,0,0,1,.68,4.68ZM36.59,24.67a19.11,19.11,0,0,1,1.58,1.23c.41.36.81.75,1.19,1.15s.86.94,1.25,1.44l.27.35q.33.44.63.9h0l.05.08.09.14a18.76,18.76,0,0,1,2.41,14v.23l-.09.34v.11a.82.82,0,0,0,0,.11v.1c-.06.22-.13.42-.19.62a18,18,0,0,1-.67,1.78c-.16.36-.32.7-.48,1s-.36.68-.55,1a19.25,19.25,0,0,1-2.2,3,19.61,19.61,0,0,1-2.81,2.55A18.65,18.65,0,0,1,20.4,57.57a17.88,17.88,0,0,1-2.28-.89v-.47a4.7,4.7,0,0,0-4.06-4.71A5.36,5.36,0,0,0,16.4,47v-.11a5.37,5.37,0,0,0-3.12-4.84,5.42,5.42,0,0,0,2.31-4.51v-.09a5.49,5.49,0,0,0-1.5-3.77,5.13,5.13,0,0,0-1.66-1.17,5.21,5.21,0,0,0,3.46-4.82,5.13,5.13,0,0,0-1-3.15A22.72,22.72,0,0,1,21,21.91l.24-.06,1-.22a18.85,18.85,0,0,1,7.54.07l.66.15h.45a18.21,18.21,0,0,1,3.54,1.42A19.64,19.64,0,0,1,36.59,24.67Z" transform="translate(-0.01 -0.01)"/><polygon class="cls-2" points="27.99 58.15 28.01 58.4 27.99 58.15 27.99 58.15"/><path class="cls-2" d="M27.89,54.89a.27.27,0,0,0-.21-.06h-.09a.29.29,0,0,0-.25.31l.16,1.73a.27.27,0,0,0,.1.19.28.28,0,0,0,.21.06h.1a.28.28,0,0,0,.26-.3h0L28,55.09A.28.28,0,0,0,27.89,54.89Z" transform="translate(-0.01 -0.01)"/><path class="cls-2" d="M35,52.12l-.08.06a.28.28,0,0,0-.12.18.27.27,0,0,0,0,.21l1,1.42a.3.3,0,0,0,.18.12H36a.28.28,0,0,0,.14-.05l.09-.06a.28.28,0,0,0,.07-.39h0l-1-1.42A.29.29,0,0,0,35,52.12Z" transform="translate(-0.01 -0.01)"/><path class="cls-2" d="M42,46.81a.25.25,0,0,0-.11-.1l-.31-.16L40.37,46a.28.28,0,0,0-.37.14v.09a.28.28,0,0,0,.14.37l1.57.73a.28.28,0,0,0,.14,0,.29.29,0,0,0,.23-.16v-.09a.28.28,0,0,0,0-.21Z" transform="translate(-0.01 -0.01)"/><path class="cls-2" d="M38.59,31.26a.25.25,0,0,0,.1.08.27.27,0,0,0,.16,0,.26.26,0,0,0,.13,0l1.42-1a.27.27,0,0,0,.08-.37v0l-.06-.09a.27.27,0,0,0-.18-.12.28.28,0,0,0-.21,0l-.4.28-1,.72a.27.27,0,0,0-.11.18.28.28,0,0,0,0,.21Z" transform="translate(-0.01 -0.01)"/><path class="cls-2" d="M32.59,26.18h.09a.29.29,0,0,0,.14,0h.07A.27.27,0,0,0,33,26l.73-1.58a.28.28,0,0,0-.13-.37h-.1a.27.27,0,0,0-.21,0,.28.28,0,0,0-.16.15l-.73,1.58A.28.28,0,0,0,32.59,26.18Z" transform="translate(-0.01 -0.01)"/><path class="cls-2" d="M20,53.53h-.09a.28.28,0,0,0-.22,0,.3.3,0,0,0-.16.15l-.73,1.58a.27.27,0,0,0,0,.21.29.29,0,0,0,.15.16h.1a.29.29,0,0,0,.14,0,.28.28,0,0,0,.23-.16l.73-1.58A.28.28,0,0,0,20,53.53Z" transform="translate(-0.01 -0.01)"/><path class="cls-2" d="M24.69,24.86h.07a.27.27,0,0,0,.15,0H25a.28.28,0,0,0,.25-.31h0l-.15-1.73a.28.28,0,0,0-.31-.25h-.06a.29.29,0,0,0-.15,0h-.1a.29.29,0,0,0-.26.31l.15,1.73a.28.28,0,0,0,.31.25Z" transform="translate(-0.01 -0.01)"/><path class="cls-2" d="M17.48,27.47a.28.28,0,0,0,.07-.39h0l-1-1.43a.3.3,0,0,0-.18-.12.28.28,0,0,0-.21,0l-.09.06A.28.28,0,0,0,16,26l1,1.42a.27.27,0,0,0,.18.12h.07a.3.3,0,0,0,.14,0Z" transform="translate(-0.01 -0.01)"/><path class="cls-2" d="M29,39.66a2.44,2.44,0,0,0-1.61-2l-.75-4.33-.2-1.07-.2-1.12-.77-4.39c-.44-2.19-.78-2.16-.75.08l.17,4.2V33.3L25,37.9a2.41,2.41,0,0,0,.17,4.21l.08,2.07c0,2.23.4-.78,1.45-.89s2,2.76,1.61.56l-.36-2A2.44,2.44,0,0,0,29,39.66Z" transform="translate(-0.01 -0.01)"/><path class="cls-2" d="M40.59,38.56a.28.28,0,0,0-.07.2v.11a.22.22,0,0,0,0,.12.25.25,0,0,0,.11.11.28.28,0,0,0,.14,0L42.51,39a.28.28,0,0,0,.27-.29h0v-.11a.28.28,0,0,0-.09-.19.27.27,0,0,0-.2-.07H42l-1.24.07A.28.28,0,0,0,40.59,38.56Z" transform="translate(-0.01 -0.01)"/></svg>