<svg id="_лой_1" data-name="—лой_1" xmlns="http://www.w3.org/2000/svg" viewBox="0 0 370.38 762.95"><defs><style>.cls-1{fill:#f22727;}.cls-2{fill:#fff;}</style></defs><title>телефон</title><path class="cls-1" d="M731.13,142.35H468.87a54.22,54.22,0,0,0-54.06,54.06V851.25a54.22,54.22,0,0,0,54.06,54.06H731.13a54.22,54.22,0,0,0,54.06-54.06V196.41A54.22,54.22,0,0,0,731.13,142.35ZM761.8,798.1H438.2V229.18H761.8Z" transform="translate(-414.81 -142.35)"/><path class="cls-2" d="M629.61,198.73H570.39a4.59,4.59,0,1,0,0,9.19h59.22a4.59,4.59,0,1,0,0-9.19Z" transform="translate(-414.81 -142.35)"/><path class="cls-2" d="M600,181.2a7.28,7.28,0,1,0-7.28-7.28A7.3,7.3,0,0,0,600,181.2Z" transform="translate(-414.81 -142.35)"/><circle class="cls-2" cx="185.19" cy="709.89" r="34.2"/></svg>