<svg id="_лой_1" data-name=" лой 1" xmlns="http://www.w3.org/2000/svg" viewBox="0 0 370.38 762.96"><defs><style>.cls-1{fill:#ce3e3e;}.cls-2{fill:#fff;}</style></defs><title>телефон</title><path class="cls-1" d="M316.32,0H54.06A54.22,54.22,0,0,0,0,54.06V708.9A54.22,54.22,0,0,0,54.06,763H316.32a54.22,54.22,0,0,0,54.06-54.06V54.06A54.22,54.22,0,0,0,316.32,0ZM347,655.75H23.39V86.83H347Z"/><path class="cls-2" d="M214.8,56.38H155.58a4.6,4.6,0,0,0,0,9.19H214.8a4.6,4.6,0,0,0,0-9.19Z"/><path class="cls-2" d="M185.19,38.85a7.28,7.28,0,1,0-7.28-7.28A7.28,7.28,0,0,0,185.19,38.85Z"/><circle class="cls-2" cx="185.19" cy="709.89" r="34.2"/></svg>