<svg id="_лой_1" data-name="—лой_1" xmlns="http://www.w3.org/2000/svg" viewBox="0 0 386.93 385.85"><defs><style>.cls-1{fill:#e52c2c;}</style></defs><title>уточка</title><path class="cls-1" d="M563.25,221.61a9.67,9.67,0,0,0-15.3-4.39c-47.9,39.34-92.49,56.6-139.05,53.44,11.3-11.91,27.29-30.13,32.78-52.73,11.21-46.22-7.47-87.6-47.61-105.42-37.32-16.56-94.53-9.1-133.11,45.65-4.34,2.2-17.31,8-32.8,8a57.72,57.72,0,0,1-13.23-1.5,9.65,9.65,0,0,0-2.86-.23c-10.42.71-17.18,8.07-16.84,18.32.72,21.44,34.84,58.39,68.49,58.4h0a46.42,46.42,0,0,0,11.6-1.46c7.55-1.95,17.95-5.64,21.06-15.19,3.43-10.52-4.25-19.87-11.67-28.9-10.24-12.46-13.84-18.56-9.62-24,0-.05,0-.11.09-.17s.17-.18.24-.29c32.53-47.8,79.09-55,110.8-40.91,24.81,11,47.47,38.65,36.67,83.19-4.81,19.8-21.33,37-31.2,47.3-8.14,8.48-12.62,13.15-10.3,20.11a10.66,10.66,0,0,0,8.62,7.13C459.13,299.19,512.59,269,549.12,241c28.75,96,11,168.74-50.45,205.76C422,492.87,307.45,470.5,260,420.47c-21-22.13-38.61-59.48-3.25-111.83,4.42-6.54,10.34-12.59,16.06-18.43,5.41-5.53,10.52-10.75,14.62-16.51a9.67,9.67,0,1,0-15.75-11.22c-3.23,4.53-7.82,9.23-12.7,14.2-6.32,6.46-12.87,13.15-18.27,21.14-33.19,49.15-31.33,97.44,5.25,136,35,36.88,95,56.78,154,56.78,39.22,0,78-8.8,108.65-27.25C550.85,437.91,614.07,372.73,563.25,221.61Zm-285.77-3.22a28,28,0,0,1-7,2.58,27.2,27.2,0,0,1-6.76.84h0c-15,0-30.12-11.26-39.2-21.78-5.85-6.79-8.59-12.38-9.55-15.63a78.51,78.51,0,0,0,13.19,1.11,91.09,91.09,0,0,0,26.32-4.05c2.15,10.44,9.82,19.78,15.29,26.43C272.42,211.11,276.25,215.77,277.48,218.38Z" transform="translate(-195.21 -104.72)"/><circle class="cls-1" cx="132.87" cy="74.74" r="14.99"/></svg>