<svg id="_лой_1" data-name=" лой 1" xmlns="http://www.w3.org/2000/svg" viewBox="0 0 386.92 385.88"><defs><style>.cls-1{fill:#ce3e3e;}</style></defs><title>уточка</title><path class="cls-1" d="M368,116.89a9.67,9.67,0,0,0-15.3-4.39c-47.9,39.34-92.49,56.6-139,53.44C225,154,241,135.81,246.47,113.21,257.68,67,239,25.61,198.86,7.79,161.54-8.77,104.33-1.31,65.75,53.44c-4.34,2.2-17.31,8-32.8,8a57.72,57.72,0,0,1-13.23-1.5,9.65,9.65,0,0,0-2.86-.23C6.44,60.42-.32,67.78,0,78c.72,21.44,34.84,58.39,68.49,58.4h0A46.42,46.42,0,0,0,80.11,135c7.55-1.95,18-5.64,21.06-15.19,3.43-10.52-4.25-19.87-11.67-28.9-10.24-12.46-13.84-18.56-9.62-24a.17.17,0,0,1,.09-.17,1,1,0,0,0,.24-.29c32.53-47.8,79.09-55,110.8-40.91,24.81,11,47.47,38.65,36.67,83.19-4.81,19.8-21.33,37-31.2,47.3-8.14,8.48-12.62,13.15-10.3,20.11a10.66,10.66,0,0,0,8.62,7.13c69.12,11.23,122.58-19,159.11-47,28.75,96,11,168.74-50.45,205.76-76.67,46.11-191.22,23.74-238.67-26.29-21-22.13-38.61-59.48-3.25-111.83,4.42-6.54,10.34-12.59,16.06-18.43C83,180,88.12,174.74,92.22,169a9.67,9.67,0,0,0-15.58-11.46l-.17.24c-3.23,4.53-7.82,9.23-12.7,14.2-6.32,6.46-12.87,13.15-18.27,21.14-33.19,49.15-31.33,97.44,5.25,136,35,36.88,95,56.78,154,56.78,39.22,0,78-8.8,108.65-27.25C355.64,333.19,418.86,268,368,116.89ZM82.27,113.67a28,28,0,0,1-7,2.58,27.2,27.2,0,0,1-6.76.84h0c-15,0-30.12-11.26-39.2-21.78-5.85-6.79-8.59-12.38-9.55-15.63a78.51,78.51,0,0,0,13.19,1.11,91.09,91.09,0,0,0,26.32-4.05c2.15,10.44,9.82,19.78,15.29,26.43,2.65,3.22,6.48,7.88,7.71,10.49Z" transform="translate(-0.01 0)"/><circle class="cls-1" cx="132.86" cy="74.74" r="14.99"/></svg>