<svg id="Warstwa_1" data-name="Warstwa 1" xmlns="http://www.w3.org/2000/svg" viewBox="0 0 77.6 61.92"><defs><style>.cls-1{fill:#e52c2c;}</style></defs><title>Векторный смарт-объект6</title><path class="cls-1" d="M107.92,44.19l-15.44-.62a24,24,0,0,1-4.35-2.74,24.73,24.73,0,0,1-3.52-4.31,78.37,78.37,0,0,0-5.9-7.46c-3-3.31-15.19-15.43-19.51-14.23L58,15.16C44,19,44,19.27,43.72,20.13a6.67,6.67,0,0,0,1.53,5.61,7.68,7.68,0,0,0,5.45,2.86l.12,1.23a.49.49,0,0,0,.53.44l1-.09a.49.49,0,0,1,.53.44l0,.46a.44.44,0,0,0,.46.43l.21,0,1.67-.19c.78-.08,1.83-.05,1.83-.05a.42.42,0,0,0,.44-.47l-.06-.59a.48.48,0,0,1,.43-.53l1-.09a.48.48,0,0,0,.43-.53l-.11-1.09.41-.06L63,33.42c-.37-.1-.74-.19-1.1-.26L61.13,33l-.45-.08a21.77,21.77,0,0,0-3.82-.26h-.13a20.16,20.16,0,0,0-3.73.41l-.24,0-.19,0-.56.13-.07,0-.36.09a18.86,18.86,0,0,0-7.65,4.1,5.16,5.16,0,0,0-1.71-.32h-.08l-1.89.11a5.18,5.18,0,0,0-2.84,9.54h-.9a5.25,5.25,0,0,0-5.09,5.42v.09a5.4,5.4,0,0,0,3.21,5,5.37,5.37,0,0,0-2.83,4.8v.08a5.33,5.33,0,0,0,5.35,5.32l2-.09a4.69,4.69,0,0,0,2.94,8.31l2.56,0h.31a4.66,4.66,0,0,0,2.85-1.17A21.86,21.86,0,0,0,62.62,76l.08,0c.35-.09.69-.19,1-.29l3.85-.07c1.48,0,2.91-.08,4-.14a36.19,36.19,0,0,0,14.2-3.39l.79-.36a8.21,8.21,0,0,1,3.27-1.11l7.52.36,8,.36a1.14,1.14,0,1,0,.1-2.27c-.12,0-12.54-.55-15.49-.71a9.64,9.64,0,0,0-4.35,1.32A33.85,33.85,0,0,1,73.73,73c-.72.08-1.47.14-2.26.18l-2.54.1a22.37,22.37,0,0,0,7.22-7.4l.21-.36,0,0c.18-.32.35-.64.51-1s.33-.68.49-1,.35-.82.5-1.23c.05-.13.1-.26.13-.37l0,0,.09-.25.08-.27,0-.06a20.81,20.81,0,0,0,1-6.68v-.35a19.8,19.8,0,0,0-.36-3.57,20.73,20.73,0,0,0-1.34-4.53A20.44,20.44,0,0,0,75.9,43a19.4,19.4,0,0,0-1.22-1.74,20.64,20.64,0,0,0-3.59-3.69,19.92,19.92,0,0,0-2.6-1.81l-.42-.24q-.83-.47-1.68-.86L61.15,26a1.14,1.14,0,0,0-1.23-.52s-.29.06-1,.16c-1.11.16-3.28.42-7,.67h-.09a6.86,6.86,0,0,1-1.3-.05,5.37,5.37,0,0,1-3.52-2,5,5,0,0,1-1.18-3.17c1.87-.8,10-3,12.75-3.79L59.81,17C61.64,16.5,70.67,23.61,77,30.59a77,77,0,0,1,5.74,7.26,25.61,25.61,0,0,0,3.93,4.74,25.92,25.92,0,0,0,5,3.14,1.15,1.15,0,0,0,.42.1l14.44.58,1.23.05a1.14,1.14,0,0,0,.09-2.27ZM37.3,42.45a2.93,2.93,0,0,1,3-2.88h.08l1.7-.1h.19a2.92,2.92,0,0,1-.12,5.83H42l-1.89.11a2.91,2.91,0,0,1-2.84-3Zm-3.61,9.87v-.09a3,3,0,0,1,2.71-3.13h.11l5.38,0a2.72,2.72,0,0,1,2,.87,3.23,3.23,0,0,1,.88,2.21v.09A3,3,0,0,1,42,55.44h-.11l-3.43,0H36.56a2.67,2.67,0,0,1-1.24-.3A3.15,3.15,0,0,1,33.68,52.33ZM38,65.2l-.88,0a3.05,3.05,0,0,1-3-3.07v-.08c0-.11,0-.21,0-.32A3,3,0,0,1,36.9,59h.18l4.66-.2.63,0a3,3,0,0,1,3,3.05v.1a3.2,3.2,0,0,1-.23,1.21,3,3,0,0,1-1.5,1.61,2.87,2.87,0,0,1-1.1.28h-.18l-.67,0Zm7.57,8.08a2.39,2.39,0,0,1-.71.16h-.19l-2.56,0A2.42,2.42,0,0,1,39.69,71a2.42,2.42,0,0,1,1-1.91A2.37,2.37,0,0,1,42,68.62h.19l2.55,0h.13a2.42,2.42,0,0,1,.68,4.68ZM68,39.41a19.11,19.11,0,0,1,1.58,1.23c.41.36.81.75,1.19,1.15s.86.94,1.25,1.44l.27.35c.22.29.43.59.63.9l0,0,.05.08.09.14a18.76,18.76,0,0,1,2.41,14c0,.05,0,.1,0,.16l0,.07-.09.34,0,.11a.82.82,0,0,0,0,.11l0,.1c-.06.22-.13.42-.19.62a18,18,0,0,1-.67,1.78c-.16.36-.32.7-.48,1s-.36.68-.55,1a19.25,19.25,0,0,1-2.2,3,19.61,19.61,0,0,1-2.81,2.55,18.65,18.65,0,0,1-6.43,3.05,18.68,18.68,0,0,1-10.24-.28,17.88,17.88,0,0,1-2.28-.89c0-.16,0-.31,0-.47a4.7,4.7,0,0,0-4.06-4.71,5.36,5.36,0,0,0,2.34-4.48v-.11a5.37,5.37,0,0,0-3.12-4.84A5.42,5.42,0,0,0,47,52.3v-.09a5.49,5.49,0,0,0-1.5-3.77,5.13,5.13,0,0,0-1.66-1.17,5.21,5.21,0,0,0,3.46-4.82,5.13,5.13,0,0,0-1-3.15,22.72,22.72,0,0,1,6.14-2.65l.24-.06,1-.22a18.85,18.85,0,0,1,7.54.07l.66.15h.05l.13,0,.09,0,.18,0a18.21,18.21,0,0,1,3.54,1.42A19.64,19.64,0,0,1,68,39.41Z" transform="translate(-31.41 -14.74)"/><polygon class="cls-1" points="28 58.16 28.02 58.41 28 58.16 28 58.16"/><path class="cls-1" d="M59.3,69.63a.27.27,0,0,0-.21-.06H59a.29.29,0,0,0-.25.31l.16,1.73a.27.27,0,0,0,.1.19.28.28,0,0,0,.21.06h.1a.28.28,0,0,0,.26-.3l-.15-1.73A.28.28,0,0,0,59.3,69.63Z" transform="translate(-31.41 -14.74)"/><path class="cls-1" d="M66.39,66.86l-.08.06a.28.28,0,0,0-.12.18.27.27,0,0,0,0,.21l1,1.42a.3.3,0,0,0,.18.12h.07a.28.28,0,0,0,.14-.05l.09-.06a.28.28,0,0,0,.07-.39l-1-1.42A.29.29,0,0,0,66.39,66.86Z" transform="translate(-31.41 -14.74)"/><path class="cls-1" d="M73.42,61.55a.25.25,0,0,0-.11-.1L73,61.29l-1.22-.56a.28.28,0,0,0-.37.14l0,.09a.28.28,0,0,0,.14.37l1.57.73a.28.28,0,0,0,.14,0,.29.29,0,0,0,.23-.16l0-.09a.28.28,0,0,0,0-.21A.25.25,0,0,0,73.42,61.55Z" transform="translate(-31.41 -14.74)"/><path class="cls-1" d="M70,46a.25.25,0,0,0,.1.08.27.27,0,0,0,.16,0,.26.26,0,0,0,.13-.05l1.42-1a.27.27,0,0,0,.07-.39l-.06-.09a.27.27,0,0,0-.18-.12.28.28,0,0,0-.21,0l-.4.28-1,.72a.27.27,0,0,0-.11.18.28.28,0,0,0,0,.21Z" transform="translate(-31.41 -14.74)"/><path class="cls-1" d="M64,40.92l.09,0a.29.29,0,0,0,.14,0l.07,0a.27.27,0,0,0,.16-.15l.73-1.58a.28.28,0,0,0-.13-.37l-.1,0a.27.27,0,0,0-.21,0,.28.28,0,0,0-.16.15l-.73,1.58A.28.28,0,0,0,64,40.92Z" transform="translate(-31.41 -14.74)"/><path class="cls-1" d="M51.43,68.27l-.09,0a.28.28,0,0,0-.22,0,.3.3,0,0,0-.16.15l-.73,1.58a.27.27,0,0,0,0,.21.29.29,0,0,0,.15.16l.1,0a.29.29,0,0,0,.14,0,.28.28,0,0,0,.23-.16l.73-1.58A.28.28,0,0,0,51.43,68.27Z" transform="translate(-31.41 -14.74)"/><path class="cls-1" d="M56.1,39.6h.07a.27.27,0,0,0,.15,0h.1a.28.28,0,0,0,.25-.31l-.15-1.73a.28.28,0,0,0-.31-.25h-.06a.29.29,0,0,0-.15,0h-.1a.29.29,0,0,0-.26.31l.15,1.73A.28.28,0,0,0,56.1,39.6Z" transform="translate(-31.41 -14.74)"/><path class="cls-1" d="M48.89,42.21a.28.28,0,0,0,.07-.39l-1-1.43a.3.3,0,0,0-.18-.12.28.28,0,0,0-.21,0l-.09.06a.28.28,0,0,0-.06.39l1,1.42a.27.27,0,0,0,.18.12h.07a.3.3,0,0,0,.14,0Z" transform="translate(-31.41 -14.74)"/><path class="cls-1" d="M60.36,54.4a2.44,2.44,0,0,0-1.61-2L58,48.07,57.8,47l-.2-1.12-.77-4.39c-.44-2.19-.78-2.16-.75.08l.17,4.2,0,1.14,0,1.13.18,4.6a2.41,2.41,0,0,0,.17,4.21l.08,2.07c0,2.23.4-.78,1.45-.89s2,2.76,1.61.56l-.36-2A2.44,2.44,0,0,0,60.36,54.4Z" transform="translate(-31.41 -14.74)"/><path class="cls-1" d="M72,53.3a.28.28,0,0,0-.07.2v.11a.22.22,0,0,0,0,.12.25.25,0,0,0,.11.11.28.28,0,0,0,.14,0l1.74-.09a.28.28,0,0,0,.27-.29v-.11a.28.28,0,0,0-.09-.19.27.27,0,0,0-.2-.07l-.49,0-1.24.07A.28.28,0,0,0,72,53.3Z" transform="translate(-31.41 -14.74)"/></svg>